@startuml
left to right direction
title Текстовый редактор
actor Пользователь
actor Создатель

rectangle функции_редактора{
Пользователь -- (создать файл)
Пользователь -- (редактировать файл)
Пользователь -- (отправить на печать)

Создатель -- (создать специальный файл)
Создатель -- (редактировать специальный файл)
Создатель -- (отправить специальный файл на печать)

(подсветить ключевые слова)
(создать файл) .> (редактировать файл)
(создать файл) .> (отправить на печать)
(отправить на печать)

(создать специальный файл) .> (редактировать специальный файл) 
(создать специальный файл) .> (отправить специальный файл на печать) 
(отправить специальный файл на печать)
(подсветить ключевые слова) ..> (создать специальный файл)
}
@enduml

@startuml
title диаграмма классов 
class Файл{
+Текст
}
class Файл_спец_формата{
+Текст
+Ключевые слова
}
class Пользователь{
+Имя
Предоставлять файл()
}
class ПО{
+код программы
+файлы на вход
}
class Нижняя_Панель{
+ количество символов
+ количество слов
}
class Верхняя_Панель{
+ кнопки
сохранить()
сохранить как()
открыть()
создать()
печать()
}
class Панель_инструментов{
+ размер шрифта
+ цвет
найти()
заменить()
}
class Область_редактирования{

}
class Область_отправки_на_печать{

}
Файл_спец_формата --> Файл
Пользователь ..> Файл: выбирает
Файл ..> ПО: подаётся на вход
Область_редактирования --> Программное_обеспечение
Программное_обеспечение --> Область_отправки_на_печать
Верхняя_Панель --> ПО
Панель_инструментов --> ПО
Нижняя_Панель --> ПО
@enduml

@startuml 
title диаграмма последовательности
participant Пользователь
participant Панель_инструментов
participant Верхняя_Панель
participant Область_редактирования
participant Область_отправки_на_печать
Пользователь -> Верхняя_Панель: Создаёт файл
Верхняя_Панель -> Область_редактирования: Демонстрирует область
Пользователь -> Область_редактирования: Редактирует файл
Пользователь -> Панель_инструментов: Выбирает инструменты редактирования
Панель_инструментов -> Область_редактирования: Изменяет текст
Пользователь -> Верхняя_Панель: делает запрос на отправку файла на печать
Верхняя_Панель -> Область_отправки_на_печать: отправляет файл на печать
@enduml